HIERARCHY
ROOT Hips
{
	OFFSET	0.00	0.00	0.00
	CHANNELS 6 Xposition Yposition Zposition Zrotation Xrotation Yrotation
	JOINT LeftUpLeg
	{
		OFFSET	 0.126116	-0.014019	-0.065224
		CHANNELS 3 Zrotation Xrotation Yrotation
		JOINT LeftLeg
		{
			OFFSET	 0.000000	 0.000000	 0.569914
			CHANNELS 3 Zrotation Xrotation Yrotation
			JOINT LeftFoot
			{
				OFFSET	 0.000000	 0.000000	 0.544423
				CHANNELS 3 Zrotation Xrotation Yrotation
				JOINT LeftToeBase
				{
					OFFSET	 0.000000	 0.000000	 0.207117
					CHANNELS 3 Zrotation Xrotation Yrotation
					End Site
					{
						OFFSET	 0.000000	 0.000000	 0.207117
					}
				}
			}
		}
	}
	JOINT RightUpLeg
	{
		OFFSET	-0.124023	-0.008373	-0.065224
		CHANNELS 3 Zrotation Xrotation Yrotation
		JOINT RightLeg
		{
			OFFSET	 0.000000	 0.000000	 0.570047
			CHANNELS 3 Zrotation Xrotation Yrotation
			JOINT RightFoot
			{
				OFFSET	 0.000000	 0.000000	 0.544354
				CHANNELS 3 Zrotation Xrotation Yrotation
				JOINT RightToeBase
				{
					OFFSET	 0.000000	 0.000000	 0.207540
					CHANNELS 3 Zrotation Xrotation Yrotation
					End Site
					{
						OFFSET	 0.000000	 0.000000	 0.207540
					}
				}
			}
		}
	}
	JOINT Spine
	{
		OFFSET	 0.000184	-0.007763	 0.117403
		CHANNELS 3 Zrotation Xrotation Yrotation
		JOINT Spine1
		{
			OFFSET	 0.000000	 0.000000	 0.137269
			CHANNELS 3 Zrotation Xrotation Yrotation
			JOINT Spine2
			{
				OFFSET	 0.000000	 0.000000	 0.156879
				CHANNELS 3 Zrotation Xrotation Yrotation
				JOINT LeftShoulder
				{
					OFFSET	 0.080501	-0.002496	 0.160144
					CHANNELS 3 Zrotation Xrotation Yrotation
					JOINT LeftArm
					{
						OFFSET	 0.000000	 0.000000	 0.164363
						CHANNELS 3 Zrotation Xrotation Yrotation
						JOINT LeftForeArm
						{
							OFFSET	 0.000000	 0.000000	 0.364576
							CHANNELS 3 Zrotation Xrotation Yrotation
							JOINT LeftHand
							{
								OFFSET	 0.000000	 0.000000	 0.360812
								CHANNELS 3 Zrotation Xrotation Yrotation
								JOINT LeftHandIndex1
								{
									OFFSET	 0.000000	 0.000000	 0.086006
									CHANNELS 3 Zrotation Xrotation Yrotation
									JOINT LeftHandIndex2
									{
										OFFSET	 0.000000	 0.000000	 0.047236
										CHANNELS 3 Zrotation Xrotation Yrotation
										JOINT LeftHandIndex3
										{
											OFFSET	-0.004284	-0.000551	 0.038166
											CHANNELS 3 Zrotation Xrotation Yrotation
											End Site
											{
												OFFSET	-0.004284	-0.000551	 0.038166
											}
										}
									}
								}
							}
						}
					}
				}
				JOINT Neck
				{
					OFFSET	 0.000000	 0.000000	 0.176489
					CHANNELS 3 Zrotation Xrotation Yrotation
					JOINT Head
					{
						OFFSET	 0.000000	-0.001747	 0.077940
						CHANNELS 3 Zrotation Xrotation Yrotation
						End Site
						{
							OFFSET	 0.000000	-0.001747	 0.077940
						}
					}
				}
				JOINT RightShoulder
				{
					OFFSET	-0.080363	 0.000306	 0.159706
					CHANNELS 3 Zrotation Xrotation Yrotation
					JOINT RightArm
					{
						OFFSET	 0.000000	 0.000000	 0.164196
						CHANNELS 3 Zrotation Xrotation Yrotation
						JOINT RightForeArm
						{
							OFFSET	 0.000000	 0.000000	 0.365611
							CHANNELS 3 Zrotation Xrotation Yrotation
							JOINT RightHand
							{
								OFFSET	 0.000000	 0.000000	 0.360648
								CHANNELS 3 Zrotation Xrotation Yrotation
								JOINT RightHandIndex1
								{
									OFFSET	 0.000000	 0.000000	 0.069977
									CHANNELS 3 Zrotation Xrotation Yrotation
									JOINT RightHandIndex2
									{
										OFFSET	 0.000000	 0.000000	 0.052305
										CHANNELS 3 Zrotation Xrotation Yrotation
										JOINT RightHandIndex3
										{
											OFFSET	 0.009002	-0.000782	 0.042196
											CHANNELS 3 Zrotation Xrotation Yrotation
											End Site
											{
												OFFSET	 0.009002	-0.000782	 0.042196
											}
										}
									}
								}
							}
						}
					}
				}
			}
		}
	}
}
MOTION
Frames:    6
Frame Time: 0.03333334
-16.114970	-40.524640	 0.821922	-42.421500	 17.453130	 3.764618	 3.557530	-34.847890	 175.422500	-1.433537	-43.065150	-0.389246	-0.777677	 80.992130	 0.481301	-2.353201	 34.045600	-0.126125	-0.743394	-36.007510	-179.484700	-2.945092	-43.004030	-0.935381	-1.604641	 81.316440	 0.541963	 2.406614	 19.900690	-0.175073	 0.765508	 15.037350	 1.269400	 0.717123	 1.796854	-1.862783	 0.184792	-3.951570	 0.018554	-125.557700	 89.278820	-142.006200	 55.839340	 66.180380	-61.789590	-10.180140	-1.437491	-21.136490	-1.626207	-2.201548	-5.374588	-5.619267	-12.167370	-1.231798	-5.213516	-0.193813	 3.566525	-1.378229	 35.397820	-2.634230	 0.800442	 0.104325	-3.793813	 0.081684	-6.827090	 1.341873	 93.698490	 85.952670	 172.021800	-60.921590	 75.213840	 70.138060	-2.667966	-14.652700	 28.906870	-24.683160	-3.184766	 9.585899	-9.835253	-9.859126	-38.838590	 5.070815	-0.697434	-9.399699	-2.350882	 35.473990	 5.254307
-16.125310	-40.541050	 0.822399	-42.355390	 18.296300	 3.818886	 3.571000	-34.968240	 175.605000	-2.036840	-43.335350	-0.805959	-1.025428	 81.923450	 0.229223	-2.349145	 34.585840	-0.138956	-0.755648	-35.588370	-179.438400	-2.496151	-42.441940	-0.643291	-1.519401	 82.744880	 0.867690	 2.405235	 21.135520	-0.150475	 0.929068	 14.595470	 1.074620	 0.793569	 1.363555	-1.964067	 0.088178	-4.474584	 0.009252	-122.705000	 89.210930	-144.783600	 61.328170	 67.640230	-63.715090	-8.599093	-1.670825	-19.108780	-0.779400	-2.248746	-5.369519	-4.965986	-11.530370	 0.242892	-5.213516	-0.193813	 3.566525	-1.378229	 35.397820	-2.634230	 0.731203	-0.242550	-3.544058	-0.050394	-7.526508	 1.232979	 93.653460	 86.008840	 172.197300	-51.808280	 78.472000	 58.142660	-4.187852	-12.791180	 22.057260	-27.178410	-3.200544	 9.556146	-9.174147	-8.516831	-38.243530	 5.070815	-0.697434	-9.399699	-2.350882	 35.473990	 5.254307
-16.133420	-40.553580	 0.822736	-42.724360	 18.821020	 3.920499	 3.548859	-34.904830	 175.655000	-2.129085	-43.699250	-0.900050	-1.103027	 82.464380	 0.195034	-2.339125	 35.830530	-0.169016	-0.730585	-35.264920	-179.566800	-2.297606	-42.198520	-0.495245	-1.452885	 83.304230	 1.001897	 2.404675	 21.521040	-0.142740	 1.180978	 14.300000	 0.949530	 0.986842	 0.973310	-1.835687	 0.111127	-4.928654	 0.012098	-116.804300	 89.040800	-150.601700	 64.681370	 68.726560	-64.648990	-7.601124	-1.822384	-17.783510	-0.128585	-2.277724	-5.363990	-4.169505	-10.736150	 2.084963	-5.213516	-0.193813	 3.566525	-1.378229	 35.397820	-2.634230	 0.819550	-0.528851	-3.318692	-0.115412	-8.144604	 1.258179	 93.876630	 86.237760	 172.097700	-39.995770	 80.247530	 44.082580	-4.693355	-11.821670	 18.973830	-28.626940	-3.219826	 9.516256	-8.806580	-7.661216	-37.978940	 5.070815	-0.697434	-9.399699	-2.350882	 35.473990	 5.254307
-16.139760	-40.563820	 0.824521	-43.176240	 19.319910	 3.936268	 3.575892	-34.791890	 175.749300	-2.403826	-43.600230	-1.073941	-1.199667	 82.448250	 0.099903	-2.330936	 36.767710	-0.192142	-0.805848	-35.397860	-179.458200	-2.528474	-42.117860	-0.696413	-1.611361	 83.385090	 0.940683	 2.404577	 21.591190	-0.141334	 1.298976	 14.015990	 0.813993	 1.114533	 0.749390	-1.576903	 0.219906	-5.185589	 0.024426	-110.281300	 88.765200	-157.152100	 66.577620	 69.577150	-65.052010	-7.294775	-1.861311	-16.883220	 0.150648	-2.299700	-5.360621	-3.932200	-10.746800	 2.644866	-5.213516	-0.193813	 3.566525	-1.378229	 35.397820	-2.634230	 0.920701	-0.653696	-2.972776	-0.047312	-8.522930	 1.505671	 94.396390	 86.559970	 171.614400	-30.498150	 80.785190	 32.936650	-4.857234	-11.283960	 17.617830	-29.156650	-3.231382	 9.490687	-8.692832	-7.589847	-37.758380	 5.070815	-0.697434	-9.399699	-2.350882	 35.473990	 5.254307
-16.145860	-40.572450	 0.826765	-43.602970	 19.730160	 3.883317	 3.574417	-34.583260	 175.783300	-2.680306	-43.339160	-1.257333	-1.285775	 82.210370	-0.017013	-2.324330	 37.480330	-0.210027	-0.842988	-35.345760	-179.259600	-2.839625	-41.966430	-0.930769	-1.800910	 83.380710	 0.867040	 2.404540	 21.617040	-0.140812	 1.356617	 13.769380	 0.830125	 1.200871	 0.637700	-1.381724	 0.339802	-5.304234	 0.038094	-107.569700	 88.603520	-159.923300	 67.479000	 69.998560	-65.403900	-6.398803	-2.113438	-16.226980	 1.168528	-2.320235	-5.350364	-3.921367	-10.995240	 2.671496	-5.213516	-0.193813	 3.566525	-1.378229	 35.397820	-2.634230	 0.995772	-0.802974	-2.631194	 0.057860	-8.598950	 1.713387	 94.831890	 86.772260	 171.174300	-24.773830	 80.751310	 26.083340	-5.181729	-11.217080	 17.237330	-29.529240	-3.235304	 9.479457	-8.610787	-7.684303	-37.496060	 5.070815	-0.697434	-9.399699	-2.350882	 35.473990	 5.254307
-16.152110	-40.579200	 0.828499	-43.759410	 19.952670	 3.854789	 3.566791	-34.260520	 175.807000	-2.655339	-43.058310	-1.237260	-1.317323	 82.220770	 0.015654	-2.319609	 37.967160	-0.222413	-0.733411	-35.010060	-179.227300	-2.965508	-41.516120	-0.956271	-1.808385	 83.499650	 0.849277	 2.404879	 21.385730	-0.145462	 1.349136	 13.436650	 0.855420	 1.232352	 0.573189	-1.305335	 0.427596	-5.361488	 0.048147	-106.835600	 88.575500	-160.756500	 67.309240	 70.049530	-65.201580	-6.470476	-2.109254	-16.289470	 1.138295	-2.316750	-5.351017	-4.146253	-11.119050	 2.144967	-5.213516	-0.193813	 3.566525	-1.378229	 35.397820	-2.634230	 1.060998	-0.768662	-2.537303	 0.160490	-8.740365	 1.886139	 94.910030	 86.828430	 171.129300	-22.311410	 80.506130	 22.950770	-5.220543	-11.251190	 17.376970	-29.414400	-3.234443	 9.482207	-8.540056	-7.793513	-37.251050	 5.070815	-0.697434	-9.399699	-2.350882	 35.473990	 5.254307
